<svg width="100" height="14" viewBox="0 0 100 14" fill="none" xmlns="http://www.w3.org/2000/svg">
<path d="M5.96 0.808C4.256 0.808 2.528 1.576 1.28 2.872L2.84 4.048C3.848 3.208 4.616 2.824 5.744 2.824C7.304 2.824 7.808 4.072 7.808 5.512H5.648C2.408 5.512 0.2 6.808 0.2 9.52C0.2 11.872 1.976 13.12 4.208 13.12C5.408 13.12 6.944 12.88 7.808 11.704V13H10.28V5.584C10.28 2.296 8.792 0.808 5.96 0.808ZM7.808 8.824C7.808 10.12 7.112 11.104 4.784 11.104C3.68 11.104 2.672 10.6 2.672 9.4C2.672 8.296 3.512 7.72 5.984 7.72H7.808V8.824ZM29.6296 11.08L27.9256 9.544C27.2296 10.504 26.2216 11.104 25.0936 11.104C23.0536 11.104 21.3976 9.376 21.3976 6.976C21.3976 4.552 23.0536 2.824 25.0936 2.824C26.2216 2.824 27.2296 3.448 27.9256 4.384L29.6296 2.848C28.5016 1.6 26.8936 0.808 25.0936 0.808C21.6856 0.808 18.9256 3.448 18.9256 6.976C18.9256 10.504 21.6856 13.12 25.0936 13.12C26.8936 13.12 28.5016 12.328 29.6296 11.08ZM49.4921 13V6.04C49.4921 4.36 50.3561 2.824 52.3961 2.824C54.4361 2.824 55.3001 4.36 55.3001 6.04V13H57.7721V5.92C57.7721 2.272 55.5641 0.808 53.0681 0.808C50.9561 0.808 49.5881 1.84 48.8441 3.232C48.1001 1.552 46.7081 0.808 45.1001 0.808C42.9641 0.808 41.8841 1.768 41.2361 2.824V0.927999H38.7641V13H41.2361V6.04C41.2361 4.36 42.1241 2.824 44.1401 2.824C46.1801 2.824 47.0441 4.36 47.0441 6.04V12.904L47.0201 13H49.4921ZM73.0617 0.808C69.6537 0.808 66.8937 3.448 66.8937 6.976C66.8937 10.504 69.6537 13.12 73.0617 13.12C76.4697 13.12 79.2297 10.504 79.2297 6.976C79.2297 3.448 76.4697 0.808 73.0617 0.808ZM73.0617 2.824C75.1017 2.824 76.7577 4.312 76.7577 6.976C76.7577 9.616 75.1017 11.104 73.0617 11.104C71.0217 11.104 69.3657 9.616 69.3657 6.976C69.3657 4.312 71.0217 2.824 73.0617 2.824ZM99.0534 13L99.0294 5.56C99.0294 2.152 97.2774 0.808 94.7814 0.808C92.6454 0.808 91.3974 1.648 90.5814 2.704V0.927999H88.1094V13H90.5814V6.304C90.5814 3.904 91.5414 2.824 93.5814 2.824C95.6214 2.824 96.5814 3.904 96.5814 6.304V13H99.0534Z" fill="white"/>
</svg>
